{"title":"The.Hills.Have.Eyes.2.2007.Unrated.BDRip.720p.x264.Iou1","uid":8610957,"size":1459475467,"categoryP":"video","categoryS":"hd___movies","magnet":"?xt=urn:btih:4e99de9f93f3cb398799d13efbd218ab2bdbff85&amp;dn=The.Hills.Have.Eyes.2.2007.Unrated.BDRip.720p.x264.Iou1&amp;tr=udp%3A%2F%2Ftracker.openbittorrent.com%3A80&amp;tr=udp%3A%2F%2Fopen.demonii.com%3A1337&amp;tr=udp%3A%2F%2Ftracker.coppersurfer.tk%3A6969&amp;tr=udp%3A%2F%2Fexodus.desync.com%3A6969","seeders":1,"leechers":0,"uploader":"jaybee211","files":-1,"time":1372132671,"description":"Format                                   : MPEG-4\nFormat profile                           : Base Media / Version 2\nCodec ID                                 : mp42\nFile size                                : 1.36 GiB\nDuration                                 : 1h 30mn\nOverall bit rate mode                    : Variable\nOverall bit rate                         : 2 162 Kbps\n\nVideo\nID                                       : 1\nFormat                                   : AVC\nFormat/Info                              : Advanced Video Codec\nFormat profile                           : &lt;a class=&quot;__cf_email__&quot; href=&quot;/cdn-cgi/l/email-protection&quot; data-cfemail=&quot;450d2c222d0509766b74&quot;&gt;[email&amp;#160;protected]&lt;/a&gt;&lt;script cf-hash='f9e31' type=&quot;text/javascript&quot;&gt;\n/* &lt;![CDATA[ */!function(){try{var t=&quot;currentScript&quot;in document?document.currentScript:function(){for(var t=document.getElementsByTagName(&quot;script&quot;),e=t.length;e--;)if(t[e].getAttribute(&quot;cf-hash&quot;))return t[e]}();if(t&amp;&amp;t.previousSibling){var e,r,n,i,c=t.previousSibling,a=c.getAttribute(&quot;data-cfemail&quot;);if(a){for(e=&quot;&quot;,r=parseInt(a.substr(0,2),16),n=2;a.length-n;n+=2)i=parseInt(a.substr(n,2),16)^r,e+=String.fromCharCode(i);e=document.createTextNode(e),c.parentNode.replaceChild(e,c)}}}catch(u){}}();/* ]]&gt; */&lt;/script&gt;\nFormat settings, CABAC                   : Yes\nFormat settings, ReFrames                : 4 frames\nCodec ID                                 : avc1\nCodec ID/Info                            : Advanced Video Coding\nDuration                                 : 1h 30mn\nBit rate mode                            : Variable\nBit rate                                 : 1 971 Kbps\nMaximum bit rate                         : 9 286 Kbps\nWidth                                    : 1 280 pixels\nHeight                                   : 544 pixels\nDisplay aspect ratio                     : 2.35:1\nFrame rate mode                          : Constant\nFrame rate                               : 23.976 fps\nColor space                              : YUV\nChroma subsampling                       : 4:2:0\nBit depth                                : 8 bits\nScan type                                : Progressive\nBits/(Pixel*Frame)                       : 0.118\nStream size                              : 1.24 GiB (91%)\n\nAudio\nID                                       : 2\nFormat                                   : AAC\nFormat/Info                              : Advanced Audio Codec\nFormat profile                           : LC\nCodec ID                                 : 40\nDuration                                 : 1h 30mn\nBit rate mode                            : Variable\nBit rate                                 : 186 Kbps\nMaximum bit rate                         : 200 Kbps\nChannel(s)                               : 6 channels\nChannel positions                        : Front: L C R, Side: L R, LFE\nSampling rate                            : 48.0 KHz\nCompression mode                         : Lossy\nStream size                              : 120 MiB (9%)\nTitle                                    : AAC 2-ch 48KHz,English\nLanguage                                 : English\nSubtitles                                : None\n\nIMDB. &lt;a href=&quot; http://www.imdb.com/title/tt0800069/&quot; rel=&quot;nofollow&quot; target=&quot;_NEW&quot;&gt; http://www.imdb.com/title/tt0800069/&lt;/a&gt;\n\nStoryline.\n\nA team of trainees of the National Guard brings supply to the New Mexico Desert for a group of soldiers and scientists that are installing a monitoring system in Sector 16. They do not find anybody in the camp, and they receive a blurred distress signal from the hills. Their sergeant gathers a rescue team, and they are attacked and trapped by deformed cannibals, having to fight to survive.\n\nScreens. &lt;a href=&quot; http://bayimg.com/mAnoHaAeg&quot; rel=&quot;nofollow&quot; target=&quot;_NEW&quot;&gt; http://bayimg.com/mAnoHaAeg&lt;/a&gt;\n\n         &lt;a href=&quot; http://bayimg.com/mAnOjaAEG&quot; rel=&quot;nofollow&quot; target=&quot;_NEW&quot;&gt; http://bayimg.com/mAnOjaAEG&lt;/a&gt;\n\n         &lt;a href=&quot; http://bayimg.com/manOlaAeg&quot; rel=&quot;nofollow&quot; target=&quot;_NEW&quot;&gt; http://bayimg.com/manOlaAeg&lt;/a&gt;\n\n         &lt;a href=&quot; http://bayimg.com/MaNoNAaeG&quot; rel=&quot;nofollow&quot; target=&quot;_NEW&quot;&gt; http://bayimg.com/MaNoNAaeG&lt;/a&gt;\n\nEnjoy.","torrent":{"xt":"urn:btih:4e99de9f93f3cb398799d13efbd218ab2bdbff85","amp;dn":"The.Hills.Have.Eyes.2.2007.Unrated.BDRip.720p.x264.Iou1","amp;tr":["udp%3A%2F%2Ftracker.openbittorrent.com%3A80","udp%3A%2F%2Fopen.demonii.com%3A1337","udp%3A%2F%2Ftracker.coppersurfer.tk%3A6969","udp%3A%2F%2Fexodus.desync.com%3A6969"],"infoHash":"4e99de9f93f3cb398799d13efbd218ab2bdbff85","infoHashBuffer":{"type":"Buffer","data":[78,153,222,159,147,243,203,57,135,153,209,62,251,210,24,171,43,219,255,133]},"announce":[],"urlList":[]}}